<?xml version="1.0" encoding="UTF-8" standalone="no"?>
<!DOCTYPE svg PUBLIC "-//W3C//DTD SVG 1.1//EN" "http://www.w3.org/Graphics/SVG/1.1/DTD/svg11.dtd">
<svg width="100%" height="100%" viewBox="0 0 434 279" version="1.1" xmlns="http://www.w3.org/2000/svg" xmlns:xlink="http://www.w3.org/1999/xlink" xml:space="preserve" xmlns:serif="http://www.serif.com/" style="fill-rule:evenodd;clip-rule:evenodd;stroke-linejoin:round;stroke-miterlimit:2;">
    <g transform="matrix(1,0,0,1,-760.075004,-774.63367)">
        <g transform="matrix(0.831093,0,0,0.831093,-19.037605,320.316352)">
            <g transform="matrix(1.203234,0,0,1.203234,-38.394345,-385.415656)">
                <path d="M1140.636,1053.036C1102.711,1053.036 1071.32,1040.053 1046.465,1014.087C1021.609,988.12 1009.181,955.263 1009.181,915.513C1009.181,875.83 1021.771,843.124 1046.95,817.394C1072.129,791.665 1103.454,778.8 1140.926,778.8C1152.887,778.8 1164.469,780.373 1175.674,783.519C1186.878,786.664 1197.164,791.149 1206.532,796.973C1215.899,802.797 1223.113,808.296 1228.174,813.468C1231.222,816.813 1232.876,820.46 1233.135,824.408C1233.394,828.356 1232.339,831.75 1229.969,834.591C1227.597,837.432 1224.689,838.932 1221.244,839.091C1217.8,839.25 1214.369,837.659 1210.952,834.317C1206.188,829.874 1200.208,825.537 1193.012,821.308C1185.815,817.078 1177.839,813.823 1169.082,811.543C1160.325,809.262 1150.981,808.122 1141.048,808.122C1111.272,808.122 1086.5,817.985 1066.73,837.713C1046.961,857.44 1037.076,883.282 1037.076,915.239C1037.076,947.418 1046.881,973.52 1066.49,993.544C1086.1,1013.569 1110.775,1023.581 1140.518,1023.581C1151.372,1023.581 1161.644,1022.174 1171.332,1019.362C1181.021,1016.549 1189.829,1012.648 1197.757,1007.658C1205.685,1002.669 1211.893,998.05 1216.38,993.803C1219.614,990.307 1223.059,988.555 1226.715,988.546C1230.371,988.538 1233.532,990.105 1236.197,993.249C1238.86,996.391 1240.097,999.966 1239.906,1003.973C1239.715,1007.981 1238.082,1011.736 1235.007,1015.237C1228.793,1021.787 1220.615,1028.166 1210.474,1034.372C1200.334,1040.579 1189.492,1045.241 1177.949,1048.359C1166.406,1051.477 1153.969,1053.036 1140.636,1053.036Z"/>
            </g>
            <g transform="matrix(1.888015,0,0,1.355318,1019.196144,546.754273)">
                <path d="M222.898,133.538C220.787,154.987 219.657,177.805 214.829,169.34C213.229,166.535 229.835,41.391 223.046,22.655C220.092,14.503 211.799,5.683 204.581,8.721C193.245,13.491 176.142,31.244 170.922,44.681C156.893,80.791 156.679,146.576 145.863,138.048C141.228,134.393 148.539,73.927 133.565,91.557C120.245,107.239 111.286,134.114 100.124,171.376C96.932,182.032 87.207,236.3 81.463,235.872C78.117,235.622 79.377,233.492 88.698,194.547C88.816,194.055 100.093,155.652 104.704,113.521C109.608,68.719 104.514,60.614 102.096,56.766C92.845,42.046 51.72,71.503 25.402,145.463C6.183,199.474 9.894,206.225 4.777,203.002C3.848,202.417 2.337,201.757 12.148,169.386C47.305,53.393 106.153,23.196 110.455,68.505C113.752,103.234 106.172,133.12 104.79,138.571C104.352,140.296 105.546,141.04 106.423,139.455C106.876,138.638 110.587,116.072 125.832,93.74C136.767,77.722 145.227,81.067 147.201,94.544C147.648,97.589 147.925,101.406 148.114,105.353C148.767,119.008 148.357,134.212 150.208,124.373C156.899,88.79 154.271,34.278 197.701,6.834C212.532,-2.538 230.392,8.576 230.041,40.49C229.97,46.908 223.446,127.403 222.898,133.538Z" style="fill:rgb(198,159,99);fill-opacity:0.98;stroke:rgb(198,159,99);stroke-width:6.1px;"/>
            </g>
            <g transform="matrix(1.203234,0,0,1.203234,22.906702,-385.415656)">
                <path d="M775.141,1046.722C770.974,1046.722 767.421,1045.045 764.483,1041.69C761.544,1038.335 760.075,1034.278 760.075,1029.521L760.075,802.133C760.075,797.497 761.544,793.502 764.483,790.147C767.421,786.792 770.974,785.114 775.141,785.114L840.235,785.114C883.245,785.114 916.665,796.733 940.492,819.969C964.32,843.206 976.234,874.959 976.234,915.23C976.234,955.619 964.334,987.632 940.532,1011.268C916.731,1034.904 883.325,1046.722 840.315,1046.722L775.141,1046.722ZM787.322,1017.364L841.005,1017.364C874.958,1017.364 901.335,1008.571 920.136,990.985C938.937,973.4 948.337,948.148 948.337,915.23C948.337,882.493 939.046,857.516 920.463,840.3C901.881,823.084 875.272,814.476 840.637,814.476L787.322,814.476L787.322,1017.364Z"/>
            </g>
        </g>
    </g>
</svg>
